<?xml version="1.0" encoding="UTF-8"?>
<svg xmlns="http://www.w3.org/2000/svg" xmlns:xlink="http://www.w3.org/1999/xlink" width="150px" height="150px" viewBox="0 0 150 150" version="1.1">
<g id="surface1">
<path style=" stroke:none;fill-rule:evenodd;fill:rgb(14.509805%,82.745099%,40.000001%);fill-opacity:1;" d="M 128.144531 21.78125 C 114.046875 7.742188 95.292969 0.0078125 75.316406 0 C 34.144531 0 0.640625 33.316406 0.625 74.269531 C 0.621094 87.359375 4.0625 100.136719 10.597656 111.398438 L 0 149.890625 L 39.59375 139.5625 C 50.5 145.480469 62.785156 148.597656 75.28125 148.601562 L 75.316406 148.601562 C 116.476562 148.601562 149.984375 115.28125 150 74.328125 C 150.007812 54.480469 142.246094 35.824219 128.144531 21.785156 Z M 75.316406 136.058594 L 75.289062 136.058594 C 64.152344 136.054688 53.226562 133.078125 43.695312 127.453125 L 41.425781 126.113281 L 17.929688 132.242188 L 24.203125 109.460938 L 22.726562 107.125 C 16.511719 97.296875 13.230469 85.933594 13.234375 74.273438 C 13.25 40.234375 41.097656 12.542969 75.339844 12.542969 C 91.921875 12.550781 107.507812 18.980469 119.226562 30.648438 C 130.949219 42.316406 137.398438 57.828125 137.390625 74.320312 C 137.375 108.363281 109.53125 136.054688 75.316406 136.054688 Z M 109.363281 89.824219 C 107.5 88.894531 98.324219 84.40625 96.613281 83.789062 C 94.902344 83.167969 93.65625 82.859375 92.414062 84.71875 C 91.171875 86.578125 87.59375 90.757812 86.507812 91.992188 C 85.417969 93.234375 84.328125 93.386719 82.464844 92.457031 C 80.597656 91.527344 74.585938 89.566406 67.453125 83.246094 C 61.90625 78.324219 58.160156 72.25 57.074219 70.390625 C 55.984375 68.53125 56.957031 67.527344 57.890625 66.605469 C 58.726562 65.769531 59.753906 64.4375 60.691406 63.351562 C 61.625 62.269531 61.933594 61.496094 62.554688 60.257812 C 63.179688 59.019531 62.867188 57.9375 62.402344 57.007812 C 61.9375 56.078125 58.203125 46.941406 56.648438 43.226562 C 55.132812 39.609375 53.59375 40.101562 52.449219 40.039062 C 51.359375 39.988281 50.117188 39.976562 48.871094 39.976562 C 47.625 39.976562 45.605469 40.4375 43.894531 42.296875 C 42.183594 44.15625 37.363281 48.648438 37.363281 57.78125 C 37.363281 66.910156 44.046875 75.738281 44.984375 76.980469 C 45.917969 78.21875 58.144531 96.960938 76.863281 105.003906 C 81.3125 106.914062 84.789062 108.058594 87.5 108.914062 C 91.972656 110.328125 96.039062 110.128906 99.253906 109.652344 C 102.839844 109.117188 110.296875 105.160156 111.851562 100.824219 C 113.402344 96.492188 113.402344 92.773438 112.9375 92 C 112.472656 91.226562 111.226562 90.761719 109.359375 89.832031 Z M 109.363281 89.824219 "/>
</g>
</svg>
